/* XPM */
static const char * back_xpm[]={
"22 22 7 1",
"d c #319cff",
"a c #3163ff",
"# c #000000",
"e c #31ceff",
"c c #9cffff",
"  c None",
"b c #ceffff",
"                      ",
"                      ",
"                      ",
"                      ",
"                      ",
"          #           ",
"         a#           ",
"        ab#           ",
"       abc#aaaaaa#    ",
"      abcccbccbcd#    ",
"     #beeeeeeeeed#    ",
"      #dedddddddd#    ",
"       #dd########    ",
"        #d#           ",
"         ##           ",
"          #           ",
"                      ",
"                      ",
"                      ",
"                      ",
"                      ",
"                      "};
