/* XPM */
static const char * forward_xpm[]={
"22 22 7 1",
"a c #3061ff",
"# c #000000",
"c c #9effff",
"  c None",
"b c #cfffff",
"d c #309eff",
"e c #30cfff",
"                      ",
"                      ",
"                      ",
"                      ",
"                      ",
"            #         ",
"            #a        ",
"            #ba       ",
"     #aaaaaa#cba      ",
"     #dcbccbcccba     ",
"     #deeeeeeeeeb#    ",
"     #dddddddded#     ",
"     ########dd#      ",
"            #d#       ",
"            ##        ",
"            #         ",
"                      ",
"                      ",
"                      ",
"                      ",
"                      ",
"                      "};
